<?xml version="1.0" encoding="UTF-8" standalone="no"?>
<svg
   xmlns:dc="http://purl.org/dc/elements/1.1/"
   xmlns:cc="http://creativecommons.org/ns#"
   xmlns:rdf="http://www.w3.org/1999/02/22-rdf-syntax-ns#"
   xmlns:svg="http://www.w3.org/2000/svg"
   xmlns="http://www.w3.org/2000/svg"
   xmlns:sodipodi="http://sodipodi.sourceforge.net/DTD/sodipodi-0.dtd"
   xmlns:inkscape="http://www.inkscape.org/namespaces/inkscape"
   width="62.960926mm"
   height="46.800396mm"
   viewBox="0 0 62.960926 46.800396"
   version="1.1"
   id="svg4533"
   inkscape:version="1.0.1 (3bc2e813f5, 2020-09-07)"
   sodipodi:docname="logo.svg">
  <defs
     id="defs4527" />
  <sodipodi:namedview
     id="base"
     pagecolor="#ffffff"
     bordercolor="#666666"
     borderopacity="1.0"
     inkscape:pageopacity="0.0"
     inkscape:pageshadow="2"
     inkscape:zoom="4.0864037"
     inkscape:cx="132.06384"
     inkscape:cy="114.40508"
     inkscape:document-units="mm"
     inkscape:current-layer="layer1"
     inkscape:document-rotation="0"
     showgrid="false"
     inkscape:window-width="1920"
     inkscape:window-height="1080"
     inkscape:window-x="0"
     inkscape:window-y="0"
     inkscape:window-maximized="1" />
  <metadata
     id="metadata4530">
    <rdf:RDF>
      <cc:Work
         rdf:about="">
        <dc:format>image/svg+xml</dc:format>
        <dc:type
           rdf:resource="http://purl.org/dc/dcmitype/StillImage" />
        <dc:title></dc:title>
      </cc:Work>
    </rdf:RDF>
  </metadata>
  <g
     inkscape:label="Layer 1"
     inkscape:groupmode="layer"
     id="layer1"
     transform="translate(-83.132231,-87.061256)">
    <path
       id="path835"
       style="fill:#ff5555;stroke:none;stroke-width:0.3;stroke-linecap:round;stroke-linejoin:round"
       d="M 126.73055,119.83221 A 14.029446,14.029446 0 0 1 112.7011,133.86165 14.029446,14.029446 0 0 1 98.671658,119.83221 14.029446,14.029446 0 0 1 112.7011,105.80276 14.029446,14.029446 0 0 1 126.73055,119.83221 Z" />
    <g
       aria-label="undef
space
"
       id="text839"
       style="font-style:normal;font-variant:normal;font-weight:normal;font-stretch:normal;font-size:20.8622px;line-height:0.75;font-family:'Fira Code';-inkscape-font-specification:'Fira Code';letter-spacing:0px;word-spacing:0px;fill:#000000;fill-opacity:1;stroke:none;stroke-width:1.11761">
      <path
         d="m 86.994413,99.706959 q 0,0.791691 0.288861,1.123351 0.288861,0.32095 0.866584,0.32095 0.524229,0 1.048459,-0.33165 0.52423,-0.33166 0.877282,-0.89868 v -7.991827 h 3.380746 v 11.361877 h -2.952803 l -0.14978,-1.32662 q -0.567024,0.81309 -1.497799,1.25173 -0.930775,0.43864 -1.989933,0.43864 -1.615483,0 -2.439273,-0.93078 -0.81309,-0.93077 -0.81309,-2.59975 v -8.195097 h 3.380746 z"
         style="font-weight:bold;fill:#ffffff;stroke-width:1.11761"
         id="path5150" />
      <path
         d="M 96.451913,103.29098 V 91.929103 h 2.952804 l 0.235368,1.315923 q 0.770295,-0.866584 1.615485,-1.273129 0.84518,-0.417244 1.91504,-0.417244 1.4657,0 2.28949,0.898679 0.83449,0.887981 0.83449,2.492766 v 8.344882 h -3.38074 v -7.371313 q 0,-0.706105 -0.10699,-1.112651 -0.0963,-0.406545 -0.33166,-0.577722 -0.23536,-0.181876 -0.65261,-0.181876 -0.51353,0 -1.00566,0.331656 -0.48144,0.320957 -0.984271,0.96287 v 7.949036 z"
         style="font-weight:bold;fill:#ffffff;stroke-width:1.11761"
         id="path5152" />
      <path
         d="m 115.75209,87.061256 3.38075,0.353053 v 15.876671 h -2.9956 l -0.17118,-1.25173 q -0.51353,0.7275 -1.30522,1.17684 -0.7917,0.43864 -1.84015,0.43864 -1.38012,0 -2.32159,-0.7382 -0.93078,-0.7489 -1.39082,-2.10762 -0.46003,-1.369416 -0.46003,-3.230966 0,-1.743866 0.54562,-3.113282 0.55633,-1.369416 1.57269,-2.139713 1.02706,-0.770296 2.40718,-0.770296 1.52989,0 2.57835,1.048459 z m -1.66897,6.964765 q -0.92008,0 -1.43361,0.866584 -0.51353,0.855885 -0.51353,2.706736 0,1.979235 0.44934,2.781629 0.46004,0.79169 1.30522,0.79169 1.06986,0 1.86155,-1.315922 v -4.899942 q -0.37445,-0.460038 -0.77029,-0.695407 -0.39585,-0.235368 -0.89868,-0.235368 z"
         style="font-weight:bold;fill:#ffffff;stroke-width:1.11761"
         id="path5154" />
      <path
         d="m 125.05981,98.594308 q 0.16048,1.33732 0.87729,1.968532 0.7168,0.63122 1.85085,0.63122 1.4443,0 2.91001,-0.94147 l 1.35871,1.84015 q -0.84518,0.7275 -2.00063,1.14474 -1.14474,0.41725 -2.53556,0.41725 -1.90434,0 -3.23096,-0.7596 -1.32663,-0.7596 -2.00063,-2.11832 -0.67401,-1.369411 -0.67401,-3.156071 0,-1.701072 0.65261,-3.081187 0.65261,-1.380115 1.90434,-2.182507 1.25173,-0.802392 2.9849,-0.802392 1.61548,0 2.81372,0.695406 1.20894,0.695407 1.86155,2.01133 0.65262,1.315924 0.65262,3.123981 0,0.695407 -0.0642,1.208938 z m 2.09692,-4.77156 q -0.93077,0 -1.4871,0.67401 -0.54563,0.674009 -0.65261,2.064823 h 4.17244 q -0.0321,-2.738833 -2.03273,-2.738833 z"
         style="font-weight:bold;fill:#ffffff;stroke-width:1.11761"
         id="path5156" />
      <path
         d="m 142.19888,87.061256 q 2.2146,0 3.89428,0.716804 l -0.93078,2.203904 q -1.13404,-0.427943 -2.43927,-0.427943 -1.00566,0 -1.44431,0.363751 -0.42794,0.363752 -0.42794,1.208938 v 1.519196 h 3.70171 l -0.37445,2.342986 h -3.32726 v 8.302088 h -3.35935 v -8.302088 h -2.38578 v -2.342986 h 2.38578 v -1.647579 q 0,-1.134047 0.53493,-2.022028 0.54563,-0.89868 1.60479,-1.401512 1.06985,-0.513531 2.56765,-0.513531 z"
         style="font-weight:bold;fill:#ffffff;stroke-width:1.11761"
         id="path5158" />
      <path
         d="m 88.171255,116.8835 q 0.866584,0 1.369416,-0.26746 0.513531,-0.27816 0.513531,-0.80239 0,-0.37445 -0.203273,-0.60982 -0.203272,-0.24607 -0.759598,-0.46004 -0.556325,-0.22467 -1.733167,-0.54563 -1.71177,-0.46003 -2.621148,-1.26243 -0.89868,-0.80239 -0.89868,-2.2253 0,-1.02706 0.567024,-1.81875 0.577723,-0.7917 1.690373,-1.24104 1.112651,-0.44934 2.674641,-0.44934 2.706737,0 4.600383,1.38012 l -1.348019,1.98993 q -0.738201,-0.44934 -1.551292,-0.7061 -0.802392,-0.25677 -1.604785,-0.25677 -0.823789,0 -1.230334,0.22467 -0.395847,0.21397 -0.395847,0.65261 0,0.29956 0.203272,0.50283 0.213972,0.20328 0.759599,0.41725 0.556325,0.21397 1.722468,0.54563 1.230335,0.34235 2.000632,0.75959 0.770296,0.40655 1.198239,1.09126 0.438641,0.67401 0.438641,1.74386 0,1.19824 -0.727502,2.05413 -0.716804,0.84518 -1.93644,1.27313 -1.219637,0.42794 -2.706737,0.42794 -1.594086,0 -2.867215,-0.44934 -1.273129,-0.46004 -2.193206,-1.26243 l 1.701072,-1.90435 q 0.706105,0.55633 1.551292,0.87729 0.845186,0.32095 1.78666,0.32095 z"
         style="font-weight:bold;fill:#ffffff;stroke-width:1.11761"
         id="path5160" />
      <path
         d="m 102.74267,107.2013 q 2.15041,0 3.14538,1.57269 1.00566,1.56199 1.00566,4.4506 0,1.76527 -0.52423,3.14538 -0.51353,1.36942 -1.4978,2.15041 -0.98427,0.781 -2.34298,0.781 -1.65828,0 -2.696041,-1.18754 v 5.2102 l -3.380746,0.35305 v -16.10134 h 2.995598 l 0.14978,1.27313 q 0.663309,-0.84519 1.476399,-1.24103 0.81309,-0.40655 1.66898,-0.40655 z m -1.04846,2.49277 q -0.56702,0 -1.02706,0.34235 -0.44934,0.33166 -0.834491,0.97357 v 4.79296 q 0.363751,0.53493 0.748901,0.78099 0.39585,0.23537 0.92008,0.23537 0.93077,0 1.41221,-0.84518 0.49213,-0.84519 0.49213,-2.70674 0,-1.36942 -0.20327,-2.15041 -0.19258,-0.7917 -0.56703,-1.10196 -0.37445,-0.32095 -0.94147,-0.32095 z"
         style="font-weight:bold;fill:#ffffff;stroke-width:1.11761"
         id="path5162" />
      <path
         d="m 118.85468,115.66387 q 0,0.63121 0.17117,0.93077 0.17118,0.28886 0.57772,0.43864 l -0.6954,2.2253 q -1.03776,-0.0963 -1.72247,-0.44934 -0.67401,-0.36375 -1.05916,-1.04845 -0.63121,0.75959 -1.63688,1.15544 -0.99497,0.38515 -2.10762,0.38515 -1.15544,0 -2.03272,-0.44934 -0.86659,-0.46004 -1.33732,-1.26243 -0.47074,-0.81309 -0.47074,-1.86155 0,-1.21964 0.65261,-2.08622 0.65261,-0.86659 1.89365,-1.31593 1.24103,-0.46003 2.9849,-0.46003 h 1.52989 v -0.42795 q 0,-1.74386 -2.2467,-1.74386 -0.56702,0 -1.4336,0.16048 -0.85589,0.16047 -1.67968,0.43864 l -0.78099,-2.2467 q 1.06985,-0.40655 2.25739,-0.62052 1.18754,-0.22467 2.17181,-0.22467 2.50347,0 3.7338,1.01637 1.23034,1.01636 1.23034,2.99559 z m -5.30649,1.21963 q 0.57772,0 1.16614,-0.33165 0.58842,-0.34236 0.88798,-0.92008 v -1.84015 h -0.83449 q -1.39081,0 -2.06482,0.42794 -0.67401,0.42794 -0.67401,1.27313 0,0.66331 0.39585,1.02706 0.40654,0.36375 1.12335,0.36375 z"
         style="font-weight:bold;fill:#ffffff;stroke-width:1.11761"
         id="path5164" />
      <path
         d="m 128.1517,116.63744 q 0.65261,0 1.25173,-0.24607 0.60982,-0.25677 1.28383,-0.7275 l 1.5085,2.13971 q -0.8024,0.68471 -1.88295,1.09125 -1.08056,0.40655 -2.34299,0.40655 -1.80805,0 -3.13468,-0.7489 -1.32662,-0.7489 -2.03272,-2.09692 -0.70611,-1.34802 -0.70611,-3.12398 0,-1.77596 0.7275,-3.16678 0.72751,-1.39081 2.06483,-2.1718 1.34802,-0.7917 3.14537,-0.7917 1.27313,0 2.2788,0.35306 1.01636,0.35305 1.88295,1.06985 l -1.46571,2.03273 q -1.23033,-0.85589 -2.55695,-0.85589 -1.20894,0 -1.88295,0.84519 -0.66331,0.84519 -0.66331,2.68534 0,1.77596 0.67401,2.54626 0.67401,0.7596 1.85085,0.7596 z"
         style="font-weight:bold;fill:#ffffff;stroke-width:1.11761"
         id="path5166" />
      <path
         d="m 137.89806,114.24096 q 0.16048,1.33732 0.87728,1.96853 0.7168,0.63122 1.85085,0.63122 1.44431,0 2.91001,-0.94147 l 1.35872,1.84015 q -0.84519,0.7275 -2.00063,1.14474 -1.14475,0.41725 -2.53556,0.41725 -1.90435,0 -3.23097,-0.7596 -1.32662,-0.7596 -2.00063,-2.11832 -0.67401,-1.36941 -0.67401,-3.15607 0,-1.70107 0.65261,-3.08119 0.65262,-1.38011 1.90435,-2.18251 1.25173,-0.80239 2.9849,-0.80239 1.61548,0 2.81372,0.69541 1.20894,0.69541 1.86155,2.01133 0.65261,1.31592 0.65261,3.12398 0,0.69541 -0.0642,1.20894 z m 2.09692,-4.77156 q -0.93078,0 -1.4871,0.67401 -0.54563,0.67401 -0.65262,2.06482 h 4.17244 q -0.0321,-2.73883 -2.03272,-2.73883 z"
         style="font-weight:bold;fill:#ffffff;stroke-width:1.11761"
         id="path5168" />
    </g>
  </g>
</svg>
